<svg width="1331" height="488" viewBox="0 0 1331 488" fill="none" xmlns="http://www.w3.org/2000/svg">
<path d="M277.812 412.333C316.283 452.6 380.114 454.057 420.381 415.586L252.23 239.581L179.319 309.239L277.812 412.333Z" fill="url(#paint0_linear_105_3)"/>
<path d="M9.84283 105.077L9.98398 4.27737L227.439 4.58186L227.298 105.382L9.84283 105.077Z" fill="url(#paint1_linear_105_3)"/>
<path d="M126.608 107.603C126.28 51.9332 171.142 6.53796 226.811 6.20931L228.435 281.308C228.764 336.978 183.902 382.373 128.232 382.702L126.608 107.603Z" fill="url(#paint2_linear_105_3)"/>
<path d="M384.091 201.589C421.624 160.474 418.722 96.7172 377.607 59.1834L153.793 304.35C116.259 345.465 119.162 409.222 160.276 446.755L384.091 201.589Z" fill="#007F5F"/>
<path d="M458.848 328.12H502.624V333.368H501.472C499.424 333.368 497.675 333.624 496.224 334.136C494.773 334.648 494.048 335.843 494.048 337.72V389.048C494.048 394.936 493.195 399.885 491.488 403.896C489.867 407.907 487.52 411.149 484.448 413.624C481.461 416.013 477.877 417.72 473.696 418.744C469.515 419.768 464.949 420.28 460 420.28C455.307 420.28 451.083 419.853 447.328 419C443.573 418.061 440.331 416.909 437.6 415.544C434.869 414.179 432.651 412.771 430.944 411.32V394.936H449.12V413.752C448.011 413.325 447.072 412.813 446.304 412.216C445.621 411.619 445.109 411.064 444.768 410.552C444.512 409.955 444.469 409.443 444.64 409.016C444.811 408.589 445.152 408.333 445.664 408.248C446.261 409.187 447.115 410.083 448.224 410.936C449.333 411.789 450.613 412.472 452.064 412.984C453.6 413.411 455.264 413.624 457.056 413.624C459.787 413.624 462.048 413.027 463.84 411.832C465.632 410.637 466.997 408.547 467.936 405.56C468.875 402.488 469.344 398.136 469.344 392.504V337.72C469.344 336.44 468.96 335.501 468.192 334.904C467.509 334.307 466.528 333.923 465.248 333.752C464.053 333.496 462.645 333.368 461.024 333.368H458.848V328.12ZM509.965 333.368V328.12H551.693V333.368H549.901C548.962 333.368 547.981 333.453 546.957 333.624C545.933 333.709 545.08 333.837 544.397 334.008C543.714 334.179 543.373 334.435 543.373 334.776L561.293 366.52L561.805 366.904L587.149 410.168C588.002 411.619 588.941 412.6 589.965 413.112C590.989 413.539 592.184 413.752 593.549 413.752H594.829V419H552.973V413.752H554.893C555.832 413.752 556.77 413.709 557.709 413.624C558.733 413.453 559.586 413.283 560.269 413.112C561.037 412.856 561.421 412.6 561.421 412.344L541.581 377.784L540.941 377.4L517.517 337.208C516.92 336.099 516.237 335.288 515.469 334.776C514.786 334.264 514.061 333.923 513.293 333.752C512.525 333.496 511.586 333.368 510.477 333.368H509.965ZM507.789 419V413.752H508.941C510.818 413.752 512.397 413.283 513.677 412.344C515.042 411.405 516.408 409.869 517.773 407.736L542.989 369.848L547.469 374.456L523.149 411.448C523.149 411.875 523.405 412.301 523.917 412.728C524.514 413.069 525.282 413.325 526.221 413.496C527.245 413.667 528.44 413.752 529.805 413.752H531.469V419H507.789ZM560.141 373.56L555.405 369.208L576.653 335.8C576.653 335.288 576.354 334.861 575.757 334.52C575.245 334.179 574.477 333.923 573.453 333.752C572.429 333.496 571.192 333.368 569.741 333.368H568.077V328.12H591.757V333.368H590.989C589.197 333.368 587.661 333.752 586.381 334.52C585.101 335.203 583.821 336.525 582.541 338.488L560.141 373.56ZM637.576 413.752C641.075 413.752 644.061 413.283 646.536 412.344C649.096 411.405 651.059 409.912 652.424 407.864C653.875 405.816 654.6 403.213 654.6 400.056C654.6 397.581 654.003 395.491 652.808 393.784C651.613 392.077 649.907 390.627 647.688 389.432C645.469 388.152 642.824 387 639.752 385.976C636.68 384.952 633.224 383.843 629.384 382.648C626.056 381.624 622.856 380.387 619.784 378.936C616.712 377.485 613.896 375.651 611.336 373.432C608.861 371.213 606.899 368.525 605.448 365.368C603.997 362.125 603.272 358.2 603.272 353.592C603.272 347.96 604.68 343.181 607.496 339.256C610.312 335.245 614.067 332.173 618.76 330.04C623.453 327.907 628.616 326.84 634.248 326.84C639.368 326.84 643.763 327.565 647.432 329.016C651.187 330.381 654.301 332.387 656.776 335.032C659.336 337.677 661.384 340.877 662.92 344.632L657.928 342.584L659.848 328.12H666.12V351.8H659.976C658.781 347.96 657.032 344.675 654.728 341.944C652.509 339.128 649.864 336.995 646.792 335.544C643.805 334.093 640.435 333.368 636.68 333.368C633.523 333.368 630.835 333.837 628.616 334.776C626.397 335.715 624.691 337.08 623.496 338.872C622.387 340.579 621.832 342.712 621.832 345.272C621.832 347.747 622.387 349.837 623.496 351.544C624.691 353.165 626.355 354.573 628.488 355.768C630.621 356.963 633.096 357.987 635.912 358.84C638.728 359.693 641.757 360.547 645 361.4C648.755 362.424 652.296 363.661 655.624 365.112C659.037 366.477 662.067 368.227 664.712 370.36C667.443 372.493 669.576 375.181 671.112 378.424C672.648 381.667 673.416 385.592 673.416 390.2C673.416 396.259 672.008 401.549 669.192 406.072C666.461 410.595 662.536 414.093 657.416 416.568C652.381 419.043 646.408 420.28 639.496 420.28C634.376 420.28 629.64 419.555 625.288 418.104C620.936 416.653 617.096 414.392 613.768 411.32C610.525 408.163 607.965 404.195 606.088 399.416L610.568 403.256L608.776 419H602.248V391.224H609.032C610.739 396.344 612.957 400.568 615.688 403.896C618.504 407.224 621.747 409.699 625.416 411.32C629.171 412.941 633.224 413.752 637.576 413.752ZM728.953 420.28C722.126 420.28 715.854 419.171 710.137 416.952C704.42 414.733 699.428 411.576 695.161 407.48C690.98 403.384 687.737 398.477 685.433 392.76C683.129 386.957 681.977 380.557 681.977 373.56C681.977 366.563 683.129 360.205 685.433 354.488C687.737 348.771 690.98 343.864 695.161 339.768C699.428 335.587 704.42 332.387 710.137 330.168C715.854 327.949 722.126 326.84 728.953 326.84C735.78 326.84 742.052 327.949 747.769 330.168C753.486 332.387 758.436 335.587 762.617 339.768C766.884 343.864 770.169 348.771 772.473 354.488C774.777 360.205 775.929 366.563 775.929 373.56C775.929 380.557 774.777 386.957 772.473 392.76C770.169 398.477 766.884 403.384 762.617 407.48C758.436 411.576 753.486 414.733 747.769 416.952C742.052 419.171 735.78 420.28 728.953 420.28ZM728.953 413.752C732.366 413.752 735.353 412.941 737.913 411.32C740.558 409.613 742.777 407.139 744.569 403.896C746.361 400.568 747.726 396.387 748.665 391.352C749.604 386.317 750.073 380.387 750.073 373.56C750.073 366.904 749.604 361.059 748.665 356.024C747.726 350.989 746.361 346.808 744.569 343.48C742.777 340.152 740.558 337.635 737.913 335.928C735.353 334.221 732.366 333.368 728.953 333.368C725.625 333.368 722.638 334.221 719.993 335.928C717.433 337.635 715.214 340.152 713.337 343.48C711.545 346.808 710.18 350.989 709.241 356.024C708.302 361.059 707.833 366.904 707.833 373.56C707.833 380.387 708.302 386.317 709.241 391.352C710.18 396.387 711.545 400.568 713.337 403.896C715.214 407.139 717.433 409.613 719.993 411.32C722.638 412.941 725.625 413.752 728.953 413.752ZM817.739 334.52V409.528C817.739 410.552 817.995 411.363 818.507 411.96C819.019 412.472 819.702 412.856 820.555 413.112C821.408 413.368 822.347 413.539 823.371 413.624C824.48 413.709 825.504 413.752 826.443 413.752H828.619V419H784.459V413.752H785.611C787.659 413.752 789.408 413.453 790.859 412.856C792.31 412.259 793.035 411.021 793.035 409.144V337.976C793.035 336.099 792.31 334.861 790.859 334.264C789.408 333.667 787.659 333.368 785.611 333.368H784.459V328.12H854.987V352.312H849.099L846.795 340.536C846.454 339 845.771 337.805 844.747 336.952C843.723 336.013 842.272 335.373 840.395 335.032C838.603 334.691 836.342 334.52 833.611 334.52H817.739ZM815.051 370.36C819.403 370.189 823.286 369.976 826.699 369.72C830.198 369.379 833.483 368.995 836.555 368.568C839.627 368.141 842.614 367.629 845.515 367.032V379.192C842.614 378.509 839.627 377.955 836.555 377.528C833.483 377.101 830.198 376.76 826.699 376.504C823.286 376.163 819.403 375.949 815.051 375.864V370.36ZM890.482 409.4V334.52H883.186C880.455 334.52 878.237 334.691 876.53 335.032C874.823 335.373 873.543 335.971 872.69 336.824C871.837 337.677 871.282 338.957 871.026 340.664L868.466 355.512H862.578V328.12H943.09V355.512H937.33L934.77 340.664C934.514 338.957 933.959 337.677 933.106 336.824C932.253 335.971 930.973 335.373 929.266 335.032C927.559 334.691 925.341 334.52 922.61 334.52H915.186V409.4C915.186 411.192 915.911 412.387 917.362 412.984C918.813 413.496 920.562 413.752 922.61 413.752H924.53V419H881.266V413.752H883.186C885.234 413.752 886.941 413.496 888.306 412.984C889.757 412.387 890.482 411.192 890.482 409.4ZM978.982 409.4V334.52H971.686C968.955 334.52 966.737 334.691 965.03 335.032C963.323 335.373 962.043 335.971 961.19 336.824C960.337 337.677 959.782 338.957 959.526 340.664L956.966 355.512H951.078V328.12H1031.59V355.512H1025.83L1023.27 340.664C1023.01 338.957 1022.46 337.677 1021.61 336.824C1020.75 335.971 1019.47 335.373 1017.77 335.032C1016.06 334.691 1013.84 334.52 1011.11 334.52H1003.69V409.4C1003.69 411.192 1004.41 412.387 1005.86 412.984C1007.31 413.496 1009.06 413.752 1011.11 413.752H1013.03V419H969.766V413.752H971.686C973.734 413.752 975.441 413.496 976.806 412.984C978.257 412.387 978.982 411.192 978.982 409.4ZM1111.67 391.608V419H1038.58V413.752H1039.74C1041.78 413.752 1043.53 413.453 1044.98 412.856C1046.43 412.259 1047.16 411.021 1047.16 409.144V337.976C1047.16 336.099 1046.43 334.861 1044.98 334.264C1043.53 333.667 1041.78 333.368 1039.74 333.368H1038.58V328.12H1108.98V352.312H1102.97L1100.66 340.536C1100.41 339 1099.77 337.805 1098.74 336.952C1097.72 336.013 1096.27 335.373 1094.39 335.032C1092.51 334.691 1090.21 334.52 1087.48 334.52H1071.86V412.6H1087.99C1090.55 412.6 1092.73 412.515 1094.52 412.344C1096.31 412.173 1097.76 411.875 1098.87 411.448C1100.07 410.936 1100.96 410.296 1101.56 409.528C1102.16 408.675 1102.58 407.651 1102.84 406.456L1105.53 391.608H1111.67ZM1069.18 369.72C1073.44 369.549 1077.28 369.336 1080.7 369.08C1084.11 368.824 1087.31 368.483 1090.3 368.056C1093.28 367.629 1096.23 367.117 1099.13 366.52V378.552C1096.23 377.869 1093.28 377.315 1090.3 376.888C1087.31 376.461 1084.11 376.12 1080.7 375.864C1077.28 375.608 1073.44 375.395 1069.18 375.224V369.72ZM1168.62 333.752C1164.87 333.752 1161.54 334.648 1158.64 336.44C1155.82 338.147 1153.43 340.707 1151.47 344.12C1149.51 347.448 1148.02 351.587 1146.99 356.536C1146.05 361.485 1145.58 367.16 1145.58 373.56C1145.58 380.472 1146.1 386.445 1147.12 391.48C1148.23 396.515 1149.76 400.653 1151.73 403.896C1153.78 407.139 1156.29 409.571 1159.28 411.192C1162.27 412.728 1165.68 413.496 1169.52 413.496C1173.87 413.496 1177.8 412.387 1181.3 410.168C1184.79 407.949 1187.74 404.835 1190.13 400.824C1192.6 396.813 1194.39 392.12 1195.5 386.744L1201.39 389.176C1200.11 395.32 1197.94 400.739 1194.86 405.432C1191.79 410.125 1187.82 413.795 1182.96 416.44C1178.1 419 1172.29 420.28 1165.55 420.28C1158.9 420.28 1152.75 419.171 1147.12 416.952C1141.57 414.733 1136.75 411.576 1132.66 407.48C1128.56 403.299 1125.36 398.349 1123.06 392.632C1120.84 386.915 1119.73 380.557 1119.73 373.56C1119.73 366.563 1120.88 360.248 1123.18 354.616C1125.49 348.899 1128.69 343.992 1132.78 339.896C1136.88 335.715 1141.62 332.515 1146.99 330.296C1152.45 327.992 1158.26 326.84 1164.4 326.84C1170.54 326.84 1175.71 327.779 1179.89 329.656C1184.15 331.533 1187.57 334.093 1190.13 337.336C1192.77 340.493 1194.69 344.12 1195.89 348.216L1190.64 345.656L1192.94 328.12H1199.34V355.512H1192.94C1191.75 351.245 1190.08 347.491 1187.95 344.248C1185.82 341.005 1183.17 338.445 1180.01 336.568C1176.86 334.691 1173.06 333.752 1168.62 333.752ZM1231.36 368.952H1282.82V375.352H1231.36V368.952ZM1208.96 419V413.752H1210.11C1212.16 413.752 1213.91 413.453 1215.36 412.856C1216.81 412.259 1217.54 411.064 1217.54 409.272V337.848C1217.54 336.056 1216.81 334.861 1215.36 334.264C1213.91 333.667 1212.16 333.368 1210.11 333.368H1208.96V328.12H1250.69V333.368H1249.66C1248.81 333.368 1247.96 333.411 1247.1 333.496C1246.25 333.496 1245.44 333.581 1244.67 333.752C1243.99 333.837 1243.39 333.923 1242.88 334.008C1242.45 334.093 1242.24 334.264 1242.24 334.52V412.6C1242.24 412.771 1242.45 412.941 1242.88 413.112C1243.39 413.197 1243.99 413.325 1244.67 413.496C1245.44 413.581 1246.25 413.667 1247.1 413.752C1247.96 413.752 1248.81 413.752 1249.66 413.752H1250.69V419H1208.96ZM1264 419V413.752H1265.02C1265.88 413.752 1266.73 413.752 1267.58 413.752C1268.44 413.667 1269.2 413.581 1269.89 413.496C1270.66 413.325 1271.25 413.197 1271.68 413.112C1272.19 413.027 1272.45 412.856 1272.45 412.6V334.52C1272.45 334.349 1272.19 334.221 1271.68 334.136C1271.25 333.965 1270.66 333.837 1269.89 333.752C1269.2 333.581 1268.44 333.496 1267.58 333.496C1266.73 333.411 1265.88 333.368 1265.02 333.368H1264V328.12H1305.73V333.368H1304.58C1302.53 333.368 1300.78 333.667 1299.33 334.264C1297.88 334.861 1297.15 336.056 1297.15 337.848V409.272C1297.15 411.064 1297.88 412.259 1299.33 412.856C1300.78 413.453 1302.53 413.752 1304.58 413.752H1305.73V419H1264Z" fill="#040404"/>
<defs>
<linearGradient id="paint0_linear_105_3" x1="383.926" y1="450.415" x2="215.774" y2="274.41" gradientUnits="userSpaceOnUse">
<stop stop-color="#007F5F"/>
<stop offset="1" stop-color="#FFD100" stop-opacity="0"/>
</linearGradient>
<linearGradient id="paint1_linear_105_3" x1="9.91341" y1="54.6773" x2="227.368" y2="54.9818" gradientUnits="userSpaceOnUse">
<stop stop-color="#007F5F"/>
<stop offset="1" stop-color="#FFD100" stop-opacity="0"/>
</linearGradient>
<linearGradient id="paint2_linear_105_3" x1="176.412" y1="6.50685" x2="178.631" y2="382.404" gradientUnits="userSpaceOnUse">
<stop stop-color="#007F5F"/>
<stop offset="1" stop-color="#FFD100" stop-opacity="0"/>
</linearGradient>
</defs>
</svg>
